REM DIRINDEX 1\3,1\2\4,1\2\5,1\2\6
REM DIRNAME folder01,folder02,folder03,folder04,folder05,folder06
TITLE ""
FILE "016.mp3" MP3
  TRACK 01 AUDIO
    TITLE "4:cjc137_0633"
    INDEX 01 00:00:00
  TRACK 02 AUDIO
    TITLE "0:"
    INDEX 01 00:01:22
  TRACK 03 AUDIO
    TITLE "6:cjc137_0634"
    INDEX 01 00:01:32
  TRACK 04 AUDIO
    TITLE "0:"
    INDEX 01 00:02:59
  TRACK 05 AUDIO
    TITLE "5:cjc137_0635"
    INDEX 01 00:02:73
  TRACK 06 AUDIO
    TITLE "0:"
    INDEX 01 00:04:17
  TRACK 07 AUDIO
    TITLE "4:cjc137_0636"
    INDEX 01 00:05:24
  TRACK 08 AUDIO
    TITLE "0:"
    INDEX 01 00:06:45
  TRACK 09 AUDIO
    TITLE "6:cjc137_0637"
    INDEX 01 00:06:57
  TRACK 10 AUDIO
    TITLE "0:"
    INDEX 01 00:07:60
  TRACK 11 AUDIO
    TITLE "5:cjc137_0638"
    INDEX 01 00:07:68
  TRACK 12 AUDIO
    TITLE "0:"
    INDEX 01 00:09:12
  TRACK 13 AUDIO
    TITLE "4:cjc137_0639"
    INDEX 01 00:10:25
  TRACK 14 AUDIO
    TITLE "0:"
    INDEX 01 00:11:33
  TRACK 15 AUDIO
    TITLE "6:cjc137_0640"
    INDEX 01 00:11:42
  TRACK 16 AUDIO
    TITLE "0:"
    INDEX 01 00:12:30
  TRACK 17 AUDIO
    TITLE "5:cjc137_0641"
    INDEX 01 00:12:44
  TRACK 18 AUDIO
    TITLE "0:"
    INDEX 01 00:13:47
  TRACK 19 AUDIO
    TITLE "4:cjc137_0642"
    INDEX 01 00:14:58
  TRACK 20 AUDIO
    TITLE "0:"
    INDEX 01 00:15:62
  TRACK 21 AUDIO
    TITLE "6:cjc137_0643"
    INDEX 01 00:16:00
  TRACK 22 AUDIO
    TITLE "0:"
    INDEX 01 00:17:06
  TRACK 23 AUDIO
    TITLE "5:cjc137_0644"
    INDEX 01 00:17:18
  TRACK 24 AUDIO
    TITLE "0:"
    INDEX 01 00:18:23
  TRACK 25 AUDIO
    TITLE "4:cjc137_0645"
    INDEX 01 00:19:32
  TRACK 26 AUDIO
    TITLE "0:"
    INDEX 01 00:20:45
  TRACK 27 AUDIO
    TITLE "6:cjc137_0646"
    INDEX 01 00:20:53
  TRACK 28 AUDIO
    TITLE "0:"
    INDEX 01 00:21:57
  TRACK 29 AUDIO
    TITLE "5:cjc137_0647"
    INDEX 01 00:21:66
  TRACK 30 AUDIO
    TITLE "0:"
    INDEX 01 00:23:04
  TRACK 31 AUDIO
    TITLE "4:cjc137_0648"
    INDEX 01 00:24:10
  TRACK 32 AUDIO
    TITLE "0:"
    INDEX 01 00:25:27
  TRACK 33 AUDIO
    TITLE "6:cjc137_0649"
    INDEX 01 00:25:41
  TRACK 34 AUDIO
    TITLE "0:"
    INDEX 01 00:26:62
  TRACK 35 AUDIO
    TITLE "5:cjc137_0650"
    INDEX 01 00:26:73
  TRACK 36 AUDIO
    TITLE "0:"
    INDEX 01 00:28:17
  TRACK 37 AUDIO
    TITLE "4:cjc137_0651"
    INDEX 01 00:29:25
  TRACK 38 AUDIO
    TITLE "0:"
    INDEX 01 00:30:50
  TRACK 39 AUDIO
    TITLE "6:cjc137_0652"
    INDEX 01 00:30:63
  TRACK 40 AUDIO
    TITLE "0:"
    INDEX 01 00:31:51
  TRACK 41 AUDIO
    TITLE "5:cjc137_0653"
    INDEX 01 00:31:61
  TRACK 42 AUDIO
    TITLE "0:"
    INDEX 01 00:33:11
  TRACK 43 AUDIO
    TITLE "4:cjc137_0654"
    INDEX 01 00:34:20
  TRACK 44 AUDIO
    TITLE "0:"
    INDEX 01 00:35:19
  TRACK 45 AUDIO
    TITLE "6:cjc137_0655"
    INDEX 01 00:35:35
  TRACK 46 AUDIO
    TITLE "0:"
    INDEX 01 00:36:40
  TRACK 47 AUDIO
    TITLE "5:cjc137_0656"
    INDEX 01 00:36:52
  TRACK 48 AUDIO
    TITLE "0:"
    INDEX 01 00:37:50
  TRACK 49 AUDIO
    TITLE "4:cjc137_0657"
    INDEX 01 00:38:63
  TRACK 50 AUDIO
    TITLE "0:"
    INDEX 01 00:39:72
  TRACK 51 AUDIO
    TITLE "6:cjc137_0658"
    INDEX 01 00:40:09
  TRACK 52 AUDIO
    TITLE "0:"
    INDEX 01 00:41:06
  TRACK 53 AUDIO
    TITLE "5:cjc137_0659"
    INDEX 01 00:41:16
  TRACK 54 AUDIO
    TITLE "0:"
    INDEX 01 00:42:27
  TRACK 55 AUDIO
    TITLE "4:cjc137_0660"
    INDEX 01 00:43:33
  TRACK 56 AUDIO
    TITLE "0:"
    INDEX 01 00:44:44
  TRACK 57 AUDIO
    TITLE "6:cjc137_0661"
    INDEX 01 00:44:58
  TRACK 58 AUDIO
    TITLE "0:"
    INDEX 01 00:45:30
  TRACK 59 AUDIO
    TITLE "5:cjc137_0662"
    INDEX 01 00:45:45
  TRACK 60 AUDIO
    TITLE "0:"
    INDEX 01 00:46:58
  TRACK 61 AUDIO
    TITLE "4:cjc137_0663"
    INDEX 01 00:47:68
  TRACK 62 AUDIO
    TITLE "0:"
    INDEX 01 00:48:69
  TRACK 63 AUDIO
    TITLE "6:cjc137_0664"
    INDEX 01 00:49:06
  TRACK 64 AUDIO
    TITLE "0:"
    INDEX 01 00:50:29
  TRACK 65 AUDIO
    TITLE "5:cjc137_0665"
    INDEX 01 00:50:44
  TRACK 66 AUDIO
    TITLE "0:"
    INDEX 01 00:51:44
  TRACK 67 AUDIO
    TITLE "4:cjc137_0666"
    INDEX 01 00:52:55
  TRACK 68 AUDIO
    TITLE "0:"
    INDEX 01 00:53:60
  TRACK 69 AUDIO
    TITLE "6:cjc137_0667"
    INDEX 01 00:53:72
  TRACK 70 AUDIO
    TITLE "0:"
    INDEX 01 00:55:12
  TRACK 71 AUDIO
    TITLE "5:cjc137_0668"
    INDEX 01 00:55:24
  TRACK 72 AUDIO
    TITLE "0:"
    INDEX 01 00:56:31
  TRACK 73 AUDIO
    TITLE "4:cjc137_0669"
    INDEX 01 00:57:39
  TRACK 74 AUDIO
    TITLE "0:"
    INDEX 01 00:58:32
  TRACK 75 AUDIO
    TITLE "6:cjc137_0670"
    INDEX 01 00:58:48
  TRACK 76 AUDIO
    TITLE "0:"
    INDEX 01 00:59:51
  TRACK 77 AUDIO
    TITLE "5:cjc137_0671"
    INDEX 01 00:59:59
  TRACK 78 AUDIO
    TITLE "0:"
    INDEX 01 01:00:57
  TRACK 79 AUDIO
    TITLE "4:cjc137_0672"
    INDEX 01 01:01:66
  TRACK 80 AUDIO
    TITLE "0:"
    INDEX 01 01:02:69
  TRACK 81 AUDIO
    TITLE "6:cjc137_0673"
    INDEX 01 01:03:10
  TRACK 82 AUDIO
    TITLE "0:"
    INDEX 01 01:04:01
  TRACK 83 AUDIO
    TITLE "5:cjc137_0674"
    INDEX 01 01:04:13
  TRACK 84 AUDIO
    TITLE "0:"
    INDEX 01 01:05:17
